{"asset":{"version":"2.0","generator":"babylon.js glTF exporter for 3dsmax 2020 v20201104.9"},"extensionsUsed":["KHR_texture_transform"],"extensionsRequired":["KHR_texture_transform"],"scene":0,"scenes":[{"nodes":[0,4]}],"nodes":[{"children":[1,2,3],"mesh":0,"translation":[-2.9637177,0.0,7.49649668],"rotation":[0.0,0.269084752,0.0,0.9631165],"name":"DUM2"},{"mesh":1,"translation":[3.05175786E-06,0.0,3.81469732E-07],"name":"okna"},{"mesh":2,"translation":[-6.49818,1.92178655,1.948093],"rotation":[0.5000002,-0.499999851,0.5,0.5000001],"name":"okenice"},{"mesh":3,"translation":[0.77456665,6.53542042,-0.863172948],"rotation":[-0.011763067,-2.980439E-08,-4.97127921E-08,0.999930859],"name":"komin"},{"mesh":4,"translation":[-16.0334053,0.0,11.3403826],"rotation":[0.0,0.269084752,0.0,0.9631165],"name":"DUM1"}],"meshes":[{"primitives":[{"attributes":{"POSITION":1,"NORMAL":2,"TEXCOORD_0":3},"indices":0,"material":0}],"name":"DUM2"},{"primitives":[{"attributes":{"POSITION":5,"NORMAL":6,"TEXCOORD_0":7},"indices":4,"material":1}],"name":"okna"},{"primitives":[{"attributes":{"POSITION":9,"NORMAL":10,"TEXCOORD_0":11},"indices":8,"material":2}],"name":"okenice"},{"primitives":[{"attributes":{"POSITION":13,"NORMAL":14,"TEXCOORD_0":15},"indices":12,"material":3}],"name":"komin"},{"primitives":[{"attributes":{"POSITION":17,"NORMAL":18,"TEXCOORD_0":19},"indices":16,"material":4}],"name":"DUM1"}],"accessors":[{"bufferView":0,"componentType":5123,"count":5217,"type":"SCALAR","name":"accessorIndices"},{"bufferView":1,"componentType":5126,"count":5217,"max":[6.560682,6.822975,3.54804921],"min":[-6.587658,-8.12865E-10,-5.179622],"type":"VEC3","name":"accessorPositions"},{"bufferView":1,"byteOffset":62604,"componentType":5126,"count":5217,"type":"VEC3","name":"accessorNormals"},{"bufferView":2,"componentType":5126,"count":5217,"type":"VEC2","name":"accessorUVs"},{"bufferView":0,"byteOffset":10436,"componentType":5123,"count":1188,"type":"SCALAR","name":"accessorIndices"},{"bufferView":1,"byteOffset":125208,"componentType":5126,"count":1188,"max":[6.34945345,2.42512369,3.04091477],"min":[-2.36094165,1.41900122,-3.46218753],"type":"VEC3","name":"accessorPositions"},{"bufferView":1,"byteOffset":139464,"componentType":5126,"count":1188,"type":"VEC3","name":"accessorNormals"},{"bufferView":2,"byteOffset":41736,"componentType":5126,"count":1188,"type":"VEC2","name":"accessorUVs"},{"bufferView":0,"byteOffset":12812,"componentType":5123,"count":3240,"type":"SCALAR","name":"accessorIndices"},{"bufferView":1,"byteOffset":153720,"componentType":5126,"count":3240,"max":[1.10269618,0.0125803007,0.503340244],"min":[-1.32525027,-12.0263615,-0.503336966],"type":"VEC3","name":"accessorPositions"},{"bufferView":1,"byteOffset":192600,"componentType":5126,"count":3240,"type":"VEC3","name":"accessorNormals"},{"bufferView":2,"byteOffset":51240,"componentType":5126,"count":3240,"type":"VEC2","name":"accessorUVs"},{"bufferView":0,"byteOffset":19292,"componentType":5123,"count":2028,"type":"SCALAR","name":"accessorIndices"},{"bufferView":1,"byteOffset":231480,"componentType":5126,"count":2028,"max":[0.136166066,0.435942143,0.145731077],"min":[-0.136166066,0.0,-0.145731077],"type":"VEC3","name":"accessorPositions"},{"bufferView":1,"byteOffset":255816,"componentType":5126,"count":2028,"type":"VEC3","name":"accessorNormals"},{"bufferView":2,"byteOffset":77160,"componentType":5126,"count":2028,"type":"VEC2","name":"accessorUVs"},{"bufferView":0,"byteOffset":23348,"componentType":5123,"count":11778,"type":"SCALAR","name":"accessorIndices"},{"bufferView":1,"byteOffset":280152,"componentType":5126,"count":11778,"max":[6.40614653,6.176145,3.927679],"min":[-4.806598,0.0,-5.25747728],"type":"VEC3","name":"accessorPositions"},{"bufferView":1,"byteOffset":421488,"componentType":5126,"count":11778,"type":"VEC3","name":"accessorNormals"},{"bufferView":2,"byteOffset":93384,"componentType":5126,"count":11778,"type":"VEC2","name":"accessorUVs"}],"bufferViews":[{"buffer":0,"byteLength":46904,"name":"bufferViewScalar"},{"buffer":0,"byteOffset":46904,"byteLength":562824,"byteStride":12,"name":"bufferViewFloatVec3"},{"buffer":0,"byteOffset":609728,"byteLength":187608,"byteStride":8,"name":"bufferViewFloatVec2"}],"buffers":[{"uri":"scene.bin","byteLength":797336}],"materials":[{"pbrMetallicRoughness":{"baseColorTexture":{"index":0,"extensions":{"KHR_texture_transform":{"offset":[0.0,0.0],"scale":[1.0,1.0],"texCoord":0}}},"metallicFactor":0.0,"roughnessFactor":0.450053632},"name":"Material #3012"},{"pbrMetallicRoughness":{"baseColorTexture":{"index":1,"extensions":{"KHR_texture_transform":{"offset":[0.0,0.0],"scale":[1.0,1.0],"texCoord":0}}},"metallicFactor":0.0,"roughnessFactor":0.450053632},"name":"Material #3071"},{"pbrMetallicRoughness":{"baseColorTexture":{"index":2,"extensions":{"KHR_texture_transform":{"offset":[0.0,0.0],"scale":[1.0,1.0],"texCoord":0}}},"metallicFactor":0.0,"roughnessFactor":0.450053632},"name":"Material #3091"},{"pbrMetallicRoughness":{"baseColorTexture":{"index":3,"extensions":{"KHR_texture_transform":{"offset":[0.0,0.0],"scale":[1.0,1.0],"texCoord":0}}},"metallicFactor":0.0,"roughnessFactor":0.450053632},"name":"Material #3013"},{"pbrMetallicRoughness":{"baseColorTexture":{"index":4,"extensions":{"KHR_texture_transform":{"offset":[0.0,0.0],"scale":[1.0,1.0],"texCoord":0}}},"metallicFactor":0.0,"roughnessFactor":0.450053632},"name":"Material #2992"}],"textures":[{"sampler":0,"source":0,"name":"DUM2.jpg"},{"sampler":0,"source":1,"name":"OKNA.jpg"},{"sampler":0,"source":2,"name":"OKENICE.jpg"},{"sampler":0,"source":3,"name":"Komin.jpg"},{"sampler":0,"source":4,"name":"DUM1.jpg"}],"images":[{"uri":"textures/DUM2.jpg"},{"uri":"textures/OKNA.jpg"},{"uri":"textures/OKENICE.jpg"},{"uri":"textures/Komin.jpg"},{"uri":"textures/DUM1.jpg"}],"samplers":[{"magFilter":9729,"minFilter":9987}]}